<svg width="390" height="248" viewBox="0 0 390 248" fill="none" xmlns="http://www.w3.org/2000/svg">
<g clip-path="url(#clip0_5_491)">
<rect width="390" height="248" fill="white"/>
<g filter="url(#filter0_f_5_491)">
<path d="M99.9971 -47.5424C3.59708 -53.5424 -92.2208 26.0067 -104.092 138C-117.896 268.22 29.1076 206 107.908 212C206.408 219.5 493.908 206.5 474.408 138C454.908 69.5 220.497 -40.0424 99.9971 -47.5424Z" fill="#0B8178"/>
</g>
<g filter="url(#filter1_f_5_491)">
<path d="M135.908 -54.5C34.0742 -62.6667 -32.0923 122.333 164.408 165.5C360.908 208.667 348.708 179.3 415.908 176.5C499.908 173 528.908 47 443.908 -14C375.908 -62.8 237.741 -46.3333 135.908 -54.5Z" fill="#044955"/>
</g>
<circle cx="90.9076" cy="-2" r="174" fill="url(#paint0_linear_5_491)" fill-opacity="0.3"/>
<circle cx="306.908" cy="-2" r="122" fill="url(#paint1_linear_5_491)" fill-opacity="0.3"/>
</g>
<defs>
<filter id="filter0_f_5_491" x="-189" y="-131.86" width="748.353" height="437.551" filterUnits="userSpaceOnUse" color-interpolation-filters="sRGB">
<feFlood flood-opacity="0" result="BackgroundImageFix"/>
<feBlend mode="normal" in="SourceGraphic" in2="BackgroundImageFix" result="shape"/>
<feGaussianBlur stdDeviation="42" result="effect1_foregroundBlur_5_491"/>
</filter>
<filter id="filter1_f_5_491" x="-46.1563" y="-138.762" width="625.207" height="411.612" filterUnits="userSpaceOnUse" color-interpolation-filters="sRGB">
<feFlood flood-opacity="0" result="BackgroundImageFix"/>
<feBlend mode="normal" in="SourceGraphic" in2="BackgroundImageFix" result="shape"/>
<feGaussianBlur stdDeviation="42" result="effect1_foregroundBlur_5_491"/>
</filter>
<linearGradient id="paint0_linear_5_491" x1="-21.7645" y1="69.3115" x2="163.645" y2="139.197" gradientUnits="userSpaceOnUse">
<stop stop-color="#044955"/>
<stop offset="1" stop-color="#0B8178"/>
</linearGradient>
<linearGradient id="paint1_linear_5_491" x1="227.908" y1="48" x2="357.908" y2="97" gradientUnits="userSpaceOnUse">
<stop stop-color="#044955"/>
<stop offset="1" stop-color="#0B8178"/>
</linearGradient>
<clipPath id="clip0_5_491">
<rect width="390" height="248" fill="white"/>
</clipPath>
</defs>
</svg>
